<svg width="243" height="65" viewBox="0 0 243 65" fill="none" xmlns="http://www.w3.org/2000/svg">
<path d="M81.3102 19.5802C58.6237 -1.1934 23.3763 -1.1934 0.689851 19.5802C-0.207355 20.4723 -0.207355 21.7468 0.561678 22.5115L4.91953 26.8446C5.81674 27.6093 7.09846 27.7367 7.86749 26.9721C26.5806 9.89435 55.4194 9.89435 74.1325 26.9721C75.0297 27.7367 76.1833 27.6093 77.0805 26.8446L81.4383 22.5115C82.2074 21.7468 82.2074 20.4723 81.3102 19.5802ZM41.0641 44.687C36.4499 44.687 32.8611 48.3829 32.8611 52.8435C32.8611 57.4315 36.4499 61 41.0641 61C45.5501 61 49.2671 57.4315 49.2671 52.8435C49.2671 48.3829 45.5501 44.687 41.0641 44.687ZM66.9549 34.109C52.2151 21.1096 29.7849 21.1096 15.0451 34.109C14.1479 34.8737 14.1479 36.2756 14.917 37.0402L19.403 41.3734C20.172 42.1381 21.3256 42.1381 22.2228 41.5008C32.9892 32.1973 49.0108 32.1973 59.7772 41.5008C60.6744 42.1381 61.828 42.1381 62.597 41.3734L67.083 37.0402C67.8521 36.2756 67.8521 34.8737 66.9549 34.109Z" fill="#A5A5A5"/>
<path d="M76.1645 64.5491C77.0613 65.3106 78.3423 65.0568 78.9828 64.1683L81.5449 60.9951C82.3135 60.1066 82.0573 58.8374 81.1606 58.2027L5.83548 0.450934C4.93875 -0.310628 3.65771 -0.0567736 3.01719 0.831715L0.455116 4.00489C-0.313508 4.89338 -0.0573001 6.16265 0.839427 6.79728L76.1645 64.5491Z" fill="#A5A5A5"/>
<path d="M146.546 58.9063H141.612V54.7168C144.142 54.3359 146.546 53.4473 148.824 52.3047L143.383 47.9883C141.485 48.623 139.587 48.877 137.436 48.75C129.085 48.2422 122.252 40.3711 122.252 31.8652V31.4844L116.179 26.6602V31.6113C116.179 42.9102 124.277 53.0664 135.285 54.5898V58.9063H130.224C127.946 58.9063 126.301 60.8105 126.301 62.9688C126.301 64.1113 127.313 65 128.326 65H148.444C149.583 65 150.342 64.1113 150.342 63.0957C150.595 60.8105 148.824 58.9063 146.546 58.9063ZM177.8 59.668L157.681 43.7988C159.579 40.498 160.844 36.6895 160.844 32.5V27.4219C160.844 25.7715 159.453 24.375 157.808 24.375C156.163 24.375 154.771 25.7715 154.771 27.4219V32.5C154.771 35.166 154.138 37.5781 152.999 39.8633L149.71 37.3242C150.342 35.8008 150.722 34.1504 150.722 32.5V12.6953C150.722 6.09375 145.661 0.253906 138.954 0.126953C132.122 -0.126953 126.428 5.33203 126.428 12.1875V19.1699L102.893 0.761719C102.387 0.253906 101.754 0 101.121 0C100.109 0 99.2233 0.507813 98.7172 1.26953C97.5784 2.53906 97.8314 4.44336 99.2233 5.45898L174.004 64.2383C175.269 65.3809 177.167 65.127 178.179 63.7305C179.445 62.5879 179.192 60.6836 177.8 59.668Z" fill="#A5A5A5"/>
<path d="M243 20.3125V28.4375C243 30.7227 241.125 32.5 239.125 32.5H227.125V60.9375C227.125 63.2227 225.25 65 223.125 65H215.125C212.875 65 211.125 63.2227 211.125 60.9375V32.5H199.125C196.875 32.5 195 30.7227 195 28.4375V20.3125C195 18.1543 196.875 16.25 199 16.25H211V4.0625C211 1.9043 212.875 0 215 0H223C225.25 0 227 1.9043 227 4.0625V16.25H239C241.25 16.25 243 18.1543 243 20.3125Z" fill="#A5A5A5"/>
</svg>
