<svg width="770" height="157" viewBox="0 0 770 157" fill="none" xmlns="http://www.w3.org/2000/svg">
<path d="M86.1333 81.0323C86.1333 86.7298 81.3833 91.1613 76 91.1613C70.3 91.1613 65.8667 86.7298 65.8667 81.0323V10.129C65.8667 4.74798 70.3 0 76 0C81.3833 0 86.1333 4.74798 86.1333 10.129V81.0323ZM20.2667 81.0323C20.2667 112.052 44.9667 136.742 76 136.742C106.717 136.742 131.733 112.052 131.733 81.0323C131.733 63.9395 123.817 48.4294 111.467 38.3004C107.033 34.8185 106.717 28.4879 110.2 24.0565C113.683 19.625 120.017 19.3085 124.45 22.7903C141.233 36.7177 152 57.6089 152 81.0323C152 123.131 117.8 157 76 157C33.8833 157 0 123.131 0 81.0323C0 57.6089 10.45 36.7177 27.2333 22.7903C31.6667 19.3085 38 19.625 41.4833 24.0565C44.9667 28.4879 44.65 34.8185 40.2167 38.3004C27.8667 48.4294 20.2667 63.9395 20.2667 81.0323Z" fill="#212529"/>
<path d="M200.689 147H174V14H267.366V40.6185H200.689V67.2371H240.677V93.8556H200.689V147Z" fill="#212529"/>
<path d="M307.819 147H281.129V14H374.496V40.6185H307.819V67.2371H347.806V93.8556H307.819V147Z" fill="#212529"/>
<path d="M481.625 147H388.259V14H414.948V120.381H481.625V147Z" fill="#212529"/>
<path d="M522.263 147H495.574V14H522.263V147Z" fill="#212529"/>
<path d="M653.757 147H625.208L573.782 59.4463V147H547.093V14H575.642L627.068 101.646V14H653.757V147Z" fill="#212529"/>
<path d="M770 147H678.587V14H770V40.6185H705.276V67.2371H749.076V93.8556H705.276V120.381H770V147Z" fill="#212529"/>
</svg>
