<svg width="290" height="297" viewBox="0 0 290 297" fill="none" xmlns="http://www.w3.org/2000/svg">
<g filter="url(#filter0_d_2_41)">
<path d="M163 152.968C163 163.02 154.562 170.839 145 170.839C134.875 170.839 127 163.02 127 152.968V27.871C127 18.377 134.875 10 145 10C154.562 10 163 18.377 163 27.871V152.968ZM46 152.968C46 207.698 89.875 251.258 145 251.258C199.562 251.258 244 207.698 244 152.968C244 122.81 229.938 95.4456 208 77.5746C200.125 71.4315 199.562 60.2621 205.75 52.4435C211.938 44.625 223.188 44.0665 231.062 50.2097C260.875 74.7823 280 111.641 280 152.968C280 227.244 219.25 287 145 287C70.1875 287 10 227.244 10 152.968C10 111.641 28.5625 74.7823 58.375 50.2097C66.25 44.0665 77.5 44.625 83.6875 52.4435C89.875 60.2621 89.3125 71.4315 81.4375 77.5746C59.5 95.4456 46 122.81 46 152.968Z" fill="#CC5F37"/>
</g>
<defs>
<filter id="filter0_d_2_41" x="0" y="0" width="290" height="297" filterUnits="userSpaceOnUse" color-interpolation-filters="sRGB">
<feFlood flood-opacity="0" result="BackgroundImageFix"/>
<feColorMatrix in="SourceAlpha" type="matrix" values="0 0 0 0 0 0 0 0 0 0 0 0 0 0 0 0 0 0 127 0" result="hardAlpha"/>
<feOffset/>
<feGaussianBlur stdDeviation="5"/>
<feComposite in2="hardAlpha" operator="out"/>
<feColorMatrix type="matrix" values="0 0 0 0 0.991667 0 0 0 0 0.836967 0 0 0 0 0.0247917 0 0 0 0.62 0"/>
<feBlend mode="normal" in2="BackgroundImageFix" result="effect1_dropShadow_2_41"/>
<feBlend mode="normal" in="SourceGraphic" in2="effect1_dropShadow_2_41" result="shape"/>
</filter>
</defs>
</svg>
